<mxfile host="app.diagrams.net" agent="Mozilla/5.0 (Windows NT 10.0; Win64; x64) AppleWebKit/537.36 (KHTML, like Gecko) Chrome/139.0.0.0 Safari/537.36 Edg/139.0.0.0" version="28.1.1">
  <diagram name="Page-1" id="X0rhPiIpTMutTziRzEij">
    <mxGraphModel dx="2363" dy="2479" grid="1" gridSize="10" guides="1" tooltips="1" connect="1" arrows="1" fold="1" page="1" pageScale="1" pageWidth="827" pageHeight="1169" math="0" shadow="0">
      <root>
        <mxCell id="0" />
        <mxCell id="1" parent="0" />
        <mxCell id="WIWS0_RXKCG6YfZ-kLhd-129" value="Serveur" style="rounded=1;whiteSpace=wrap;html=1;dashed=1;labelPosition=center;verticalLabelPosition=bottom;align=center;verticalAlign=top;" vertex="1" parent="1">
          <mxGeometry x="390" y="-140" width="1060" height="1290" as="geometry" />
        </mxCell>
        <mxCell id="WIWS0_RXKCG6YfZ-kLhd-1" value="Client" style="shape=umlActor;verticalLabelPosition=middle;verticalAlign=middle;html=1;outlineConnect=0;labelPosition=left;align=right;" vertex="1" parent="1">
          <mxGeometry x="200" y="175" width="30" height="60" as="geometry" />
        </mxCell>
        <mxCell id="WIWS0_RXKCG6YfZ-kLhd-2" value="Service Client" style="shape=umlActor;verticalLabelPosition=middle;verticalAlign=middle;html=1;outlineConnect=0;labelPosition=left;align=right;" vertex="1" parent="1">
          <mxGeometry x="120" y="585" width="30" height="60" as="geometry" />
        </mxCell>
        <mxCell id="WIWS0_RXKCG6YfZ-kLhd-64" value="" style="group;labelPosition=center;verticalLabelPosition=bottom;align=center;verticalAlign=top;" vertex="1" connectable="0" parent="1">
          <mxGeometry x="530" y="-70" width="830" height="590" as="geometry" />
        </mxCell>
        <mxCell id="WIWS0_RXKCG6YfZ-kLhd-76" value="Conteneur" style="rounded=0;whiteSpace=wrap;html=1;dashed=1;dashPattern=12 12;labelPosition=center;verticalLabelPosition=bottom;align=center;verticalAlign=top;" vertex="1" parent="WIWS0_RXKCG6YfZ-kLhd-64">
          <mxGeometry x="-20" y="-20" width="850" height="610" as="geometry" />
        </mxCell>
        <mxCell id="WIWS0_RXKCG6YfZ-kLhd-38" value="Application Angular" style="rounded=0;whiteSpace=wrap;html=1;labelPosition=center;verticalLabelPosition=bottom;align=center;verticalAlign=top;" vertex="1" parent="WIWS0_RXKCG6YfZ-kLhd-64">
          <mxGeometry width="810" height="550" as="geometry" />
        </mxCell>
        <mxCell id="WIWS0_RXKCG6YfZ-kLhd-23" value="Module Auth" style="group;labelPosition=center;verticalLabelPosition=bottom;align=center;verticalAlign=top;" vertex="1" connectable="0" parent="WIWS0_RXKCG6YfZ-kLhd-64">
          <mxGeometry x="10" y="220" width="150" height="290" as="geometry" />
        </mxCell>
        <mxCell id="WIWS0_RXKCG6YfZ-kLhd-24" value="" style="rounded=0;whiteSpace=wrap;html=1;" vertex="1" parent="WIWS0_RXKCG6YfZ-kLhd-23">
          <mxGeometry width="150" height="290" as="geometry" />
        </mxCell>
        <mxCell id="WIWS0_RXKCG6YfZ-kLhd-25" value="Components" style="rounded=1;whiteSpace=wrap;html=1;" vertex="1" parent="WIWS0_RXKCG6YfZ-kLhd-23">
          <mxGeometry x="15" y="80" width="120" height="60" as="geometry" />
        </mxCell>
        <mxCell id="WIWS0_RXKCG6YfZ-kLhd-26" value="Services" style="rounded=1;whiteSpace=wrap;html=1;" vertex="1" parent="WIWS0_RXKCG6YfZ-kLhd-23">
          <mxGeometry x="15" y="150" width="120" height="60" as="geometry" />
        </mxCell>
        <mxCell id="WIWS0_RXKCG6YfZ-kLhd-27" value="Models" style="rounded=1;whiteSpace=wrap;html=1;" vertex="1" parent="WIWS0_RXKCG6YfZ-kLhd-23">
          <mxGeometry x="15" y="220" width="120" height="60" as="geometry" />
        </mxCell>
        <mxCell id="WIWS0_RXKCG6YfZ-kLhd-28" value="Routing" style="rounded=1;whiteSpace=wrap;html=1;" vertex="1" parent="WIWS0_RXKCG6YfZ-kLhd-23">
          <mxGeometry x="15" y="10" width="120" height="60" as="geometry" />
        </mxCell>
        <mxCell id="WIWS0_RXKCG6YfZ-kLhd-35" value="Guards" style="rounded=1;whiteSpace=wrap;html=1;" vertex="1" parent="WIWS0_RXKCG6YfZ-kLhd-64">
          <mxGeometry x="20" y="150" width="770" height="60" as="geometry" />
        </mxCell>
        <mxCell id="WIWS0_RXKCG6YfZ-kLhd-36" value="AppRouting" style="rounded=1;whiteSpace=wrap;html=1;" vertex="1" parent="WIWS0_RXKCG6YfZ-kLhd-64">
          <mxGeometry x="20" y="80" width="770" height="60" as="geometry" />
        </mxCell>
        <mxCell id="WIWS0_RXKCG6YfZ-kLhd-37" value="AppModule" style="rounded=1;whiteSpace=wrap;html=1;" vertex="1" parent="WIWS0_RXKCG6YfZ-kLhd-64">
          <mxGeometry x="20" y="10" width="770" height="60" as="geometry" />
        </mxCell>
        <mxCell id="WIWS0_RXKCG6YfZ-kLhd-39" value="Module User" style="group;labelPosition=center;verticalLabelPosition=bottom;align=center;verticalAlign=top;" vertex="1" connectable="0" parent="WIWS0_RXKCG6YfZ-kLhd-64">
          <mxGeometry x="170" y="220" width="150" height="290" as="geometry" />
        </mxCell>
        <mxCell id="WIWS0_RXKCG6YfZ-kLhd-40" value="" style="rounded=0;whiteSpace=wrap;html=1;" vertex="1" parent="WIWS0_RXKCG6YfZ-kLhd-39">
          <mxGeometry width="150" height="290" as="geometry" />
        </mxCell>
        <mxCell id="WIWS0_RXKCG6YfZ-kLhd-41" value="Components" style="rounded=1;whiteSpace=wrap;html=1;" vertex="1" parent="WIWS0_RXKCG6YfZ-kLhd-39">
          <mxGeometry x="15" y="80" width="120" height="60" as="geometry" />
        </mxCell>
        <mxCell id="WIWS0_RXKCG6YfZ-kLhd-42" value="Services" style="rounded=1;whiteSpace=wrap;html=1;" vertex="1" parent="WIWS0_RXKCG6YfZ-kLhd-39">
          <mxGeometry x="15" y="150" width="120" height="60" as="geometry" />
        </mxCell>
        <mxCell id="WIWS0_RXKCG6YfZ-kLhd-43" value="Models" style="rounded=1;whiteSpace=wrap;html=1;" vertex="1" parent="WIWS0_RXKCG6YfZ-kLhd-39">
          <mxGeometry x="15" y="220" width="120" height="60" as="geometry" />
        </mxCell>
        <mxCell id="WIWS0_RXKCG6YfZ-kLhd-44" value="Routing" style="rounded=1;whiteSpace=wrap;html=1;" vertex="1" parent="WIWS0_RXKCG6YfZ-kLhd-39">
          <mxGeometry x="15" y="10" width="120" height="60" as="geometry" />
        </mxCell>
        <mxCell id="WIWS0_RXKCG6YfZ-kLhd-45" value="Module Issue" style="group;labelPosition=center;verticalLabelPosition=bottom;align=center;verticalAlign=top;" vertex="1" connectable="0" parent="WIWS0_RXKCG6YfZ-kLhd-64">
          <mxGeometry x="330" y="220" width="150" height="290" as="geometry" />
        </mxCell>
        <mxCell id="WIWS0_RXKCG6YfZ-kLhd-46" value="" style="rounded=0;whiteSpace=wrap;html=1;" vertex="1" parent="WIWS0_RXKCG6YfZ-kLhd-45">
          <mxGeometry width="150" height="290" as="geometry" />
        </mxCell>
        <mxCell id="WIWS0_RXKCG6YfZ-kLhd-47" value="Components" style="rounded=1;whiteSpace=wrap;html=1;" vertex="1" parent="WIWS0_RXKCG6YfZ-kLhd-45">
          <mxGeometry x="15" y="80" width="120" height="60" as="geometry" />
        </mxCell>
        <mxCell id="WIWS0_RXKCG6YfZ-kLhd-48" value="Services" style="rounded=1;whiteSpace=wrap;html=1;" vertex="1" parent="WIWS0_RXKCG6YfZ-kLhd-45">
          <mxGeometry x="15" y="150" width="120" height="60" as="geometry" />
        </mxCell>
        <mxCell id="WIWS0_RXKCG6YfZ-kLhd-49" value="Models" style="rounded=1;whiteSpace=wrap;html=1;" vertex="1" parent="WIWS0_RXKCG6YfZ-kLhd-45">
          <mxGeometry x="15" y="220" width="120" height="60" as="geometry" />
        </mxCell>
        <mxCell id="WIWS0_RXKCG6YfZ-kLhd-50" value="Routing" style="rounded=1;whiteSpace=wrap;html=1;" vertex="1" parent="WIWS0_RXKCG6YfZ-kLhd-45">
          <mxGeometry x="15" y="10" width="120" height="60" as="geometry" />
        </mxCell>
        <mxCell id="WIWS0_RXKCG6YfZ-kLhd-51" value="Module Vehicule" style="group;labelPosition=center;verticalLabelPosition=bottom;align=center;verticalAlign=top;" vertex="1" connectable="0" parent="WIWS0_RXKCG6YfZ-kLhd-64">
          <mxGeometry x="490" y="220" width="150" height="290" as="geometry" />
        </mxCell>
        <mxCell id="WIWS0_RXKCG6YfZ-kLhd-52" value="" style="rounded=0;whiteSpace=wrap;html=1;" vertex="1" parent="WIWS0_RXKCG6YfZ-kLhd-51">
          <mxGeometry width="150" height="290" as="geometry" />
        </mxCell>
        <mxCell id="WIWS0_RXKCG6YfZ-kLhd-53" value="Components" style="rounded=1;whiteSpace=wrap;html=1;" vertex="1" parent="WIWS0_RXKCG6YfZ-kLhd-51">
          <mxGeometry x="15" y="80" width="120" height="60" as="geometry" />
        </mxCell>
        <mxCell id="WIWS0_RXKCG6YfZ-kLhd-54" value="Services" style="rounded=1;whiteSpace=wrap;html=1;" vertex="1" parent="WIWS0_RXKCG6YfZ-kLhd-51">
          <mxGeometry x="15" y="150" width="120" height="60" as="geometry" />
        </mxCell>
        <mxCell id="WIWS0_RXKCG6YfZ-kLhd-55" value="Models" style="rounded=1;whiteSpace=wrap;html=1;" vertex="1" parent="WIWS0_RXKCG6YfZ-kLhd-51">
          <mxGeometry x="15" y="220" width="120" height="60" as="geometry" />
        </mxCell>
        <mxCell id="WIWS0_RXKCG6YfZ-kLhd-56" value="Routing" style="rounded=1;whiteSpace=wrap;html=1;" vertex="1" parent="WIWS0_RXKCG6YfZ-kLhd-51">
          <mxGeometry x="15" y="10" width="120" height="60" as="geometry" />
        </mxCell>
        <mxCell id="WIWS0_RXKCG6YfZ-kLhd-57" value="Module Rental" style="group;labelPosition=center;verticalLabelPosition=bottom;align=center;verticalAlign=top;" vertex="1" connectable="0" parent="WIWS0_RXKCG6YfZ-kLhd-64">
          <mxGeometry x="650" y="220" width="150" height="290" as="geometry" />
        </mxCell>
        <mxCell id="WIWS0_RXKCG6YfZ-kLhd-58" value="" style="rounded=0;whiteSpace=wrap;html=1;" vertex="1" parent="WIWS0_RXKCG6YfZ-kLhd-57">
          <mxGeometry width="150" height="290" as="geometry" />
        </mxCell>
        <mxCell id="WIWS0_RXKCG6YfZ-kLhd-59" value="Components" style="rounded=1;whiteSpace=wrap;html=1;" vertex="1" parent="WIWS0_RXKCG6YfZ-kLhd-57">
          <mxGeometry x="15" y="80" width="120" height="60" as="geometry" />
        </mxCell>
        <mxCell id="WIWS0_RXKCG6YfZ-kLhd-60" value="Services" style="rounded=1;whiteSpace=wrap;html=1;" vertex="1" parent="WIWS0_RXKCG6YfZ-kLhd-57">
          <mxGeometry x="15" y="150" width="120" height="60" as="geometry" />
        </mxCell>
        <mxCell id="WIWS0_RXKCG6YfZ-kLhd-61" value="Models" style="rounded=1;whiteSpace=wrap;html=1;" vertex="1" parent="WIWS0_RXKCG6YfZ-kLhd-57">
          <mxGeometry x="15" y="220" width="120" height="60" as="geometry" />
        </mxCell>
        <mxCell id="WIWS0_RXKCG6YfZ-kLhd-62" value="Routing" style="rounded=1;whiteSpace=wrap;html=1;" vertex="1" parent="WIWS0_RXKCG6YfZ-kLhd-57">
          <mxGeometry x="15" y="10" width="120" height="60" as="geometry" />
        </mxCell>
        <mxCell id="WIWS0_RXKCG6YfZ-kLhd-115" value="" style="group" vertex="1" connectable="0" parent="1">
          <mxGeometry x="510" y="680" width="420" height="420" as="geometry" />
        </mxCell>
        <mxCell id="WIWS0_RXKCG6YfZ-kLhd-114" value="Conteneur" style="rounded=0;whiteSpace=wrap;html=1;dashed=1;dashPattern=12 12;labelPosition=center;verticalLabelPosition=bottom;align=center;verticalAlign=top;" vertex="1" parent="WIWS0_RXKCG6YfZ-kLhd-115">
          <mxGeometry width="420" height="420" as="geometry" />
        </mxCell>
        <mxCell id="WIWS0_RXKCG6YfZ-kLhd-75" value="Application Sring Boot" style="rounded=0;whiteSpace=wrap;html=1;labelPosition=center;verticalLabelPosition=bottom;align=center;verticalAlign=top;" vertex="1" parent="WIWS0_RXKCG6YfZ-kLhd-115">
          <mxGeometry x="20" y="20" width="380" height="360" as="geometry" />
        </mxCell>
        <mxCell id="WIWS0_RXKCG6YfZ-kLhd-67" value="FilterChain" style="rounded=1;whiteSpace=wrap;html=1;" vertex="1" parent="WIWS0_RXKCG6YfZ-kLhd-115">
          <mxGeometry x="30" y="30" width="120" height="340" as="geometry" />
        </mxCell>
        <mxCell id="WIWS0_RXKCG6YfZ-kLhd-68" value="Controlleurs" style="rounded=1;whiteSpace=wrap;html=1;" vertex="1" parent="WIWS0_RXKCG6YfZ-kLhd-115">
          <mxGeometry x="160" y="30" width="230" height="60" as="geometry" />
        </mxCell>
        <mxCell id="WIWS0_RXKCG6YfZ-kLhd-69" value="Services" style="rounded=1;whiteSpace=wrap;html=1;" vertex="1" parent="WIWS0_RXKCG6YfZ-kLhd-115">
          <mxGeometry x="160" y="100" width="230" height="60" as="geometry" />
        </mxCell>
        <mxCell id="WIWS0_RXKCG6YfZ-kLhd-70" value="Mappers" style="rounded=1;whiteSpace=wrap;html=1;" vertex="1" parent="WIWS0_RXKCG6YfZ-kLhd-115">
          <mxGeometry x="160" y="170" width="230" height="60" as="geometry" />
        </mxCell>
        <mxCell id="WIWS0_RXKCG6YfZ-kLhd-71" value="Repositories" style="rounded=1;whiteSpace=wrap;html=1;" vertex="1" parent="WIWS0_RXKCG6YfZ-kLhd-115">
          <mxGeometry x="160" y="310" width="230" height="60" as="geometry" />
        </mxCell>
        <mxCell id="WIWS0_RXKCG6YfZ-kLhd-72" value="Models" style="rounded=1;whiteSpace=wrap;html=1;" vertex="1" parent="WIWS0_RXKCG6YfZ-kLhd-115">
          <mxGeometry x="170" y="240" width="100" height="60" as="geometry" />
        </mxCell>
        <mxCell id="WIWS0_RXKCG6YfZ-kLhd-73" value="Entities" style="rounded=1;whiteSpace=wrap;html=1;" vertex="1" parent="WIWS0_RXKCG6YfZ-kLhd-115">
          <mxGeometry x="280" y="240" width="100" height="60" as="geometry" />
        </mxCell>
        <mxCell id="WIWS0_RXKCG6YfZ-kLhd-117" value="HTTPS" style="shape=flexArrow;endArrow=classic;startArrow=classic;html=1;rounded=0;fontSize=17;" edge="1" parent="1">
          <mxGeometry width="100" height="100" relative="1" as="geometry">
            <mxPoint x="700" y="660" as="sourcePoint" />
            <mxPoint x="700" y="540" as="targetPoint" />
          </mxGeometry>
        </mxCell>
        <mxCell id="WIWS0_RXKCG6YfZ-kLhd-118" value="HTTPS" style="shape=flexArrow;endArrow=classic;startArrow=classic;html=1;rounded=0;fontSize=17;" edge="1" parent="1">
          <mxGeometry width="100" height="100" relative="1" as="geometry">
            <mxPoint x="170" y="590" as="sourcePoint" />
            <mxPoint x="480" y="420" as="targetPoint" />
          </mxGeometry>
        </mxCell>
        <mxCell id="WIWS0_RXKCG6YfZ-kLhd-119" value="HTTPS" style="shape=flexArrow;endArrow=classic;startArrow=classic;html=1;rounded=0;fontSize=17;" edge="1" parent="1">
          <mxGeometry width="100" height="100" relative="1" as="geometry">
            <mxPoint x="170" y="640" as="sourcePoint" />
            <mxPoint x="490" y="730" as="targetPoint" />
          </mxGeometry>
        </mxCell>
        <mxCell id="WIWS0_RXKCG6YfZ-kLhd-120" value="HTTPS" style="shape=flexArrow;endArrow=classic;startArrow=classic;html=1;rounded=0;fontSize=17;" edge="1" parent="1">
          <mxGeometry width="100" height="100" relative="1" as="geometry">
            <mxPoint x="260" y="200" as="sourcePoint" />
            <mxPoint x="490" y="200" as="targetPoint" />
          </mxGeometry>
        </mxCell>
        <mxCell id="WIWS0_RXKCG6YfZ-kLhd-125" value="" style="group" vertex="1" connectable="0" parent="1">
          <mxGeometry x="1080" y="700" width="150" height="160" as="geometry" />
        </mxCell>
        <mxCell id="WIWS0_RXKCG6YfZ-kLhd-121" value="Conteneur" style="rounded=0;whiteSpace=wrap;html=1;dashed=1;dashPattern=12 12;labelPosition=center;verticalLabelPosition=bottom;align=center;verticalAlign=top;" vertex="1" parent="WIWS0_RXKCG6YfZ-kLhd-125">
          <mxGeometry width="150" height="160" as="geometry" />
        </mxCell>
        <mxCell id="WIWS0_RXKCG6YfZ-kLhd-122" value="Base de données SQL" style="shape=cylinder3;whiteSpace=wrap;html=1;boundedLbl=1;backgroundOutline=1;size=15;labelPosition=center;verticalLabelPosition=bottom;align=center;verticalAlign=top;" vertex="1" parent="WIWS0_RXKCG6YfZ-kLhd-125">
          <mxGeometry x="20" y="20" width="110" height="90" as="geometry" />
        </mxCell>
        <mxCell id="WIWS0_RXKCG6YfZ-kLhd-126" value="" style="group" vertex="1" connectable="0" parent="1">
          <mxGeometry x="1080" y="900" width="150" height="170" as="geometry" />
        </mxCell>
        <mxCell id="WIWS0_RXKCG6YfZ-kLhd-123" value="Conteneur" style="rounded=0;whiteSpace=wrap;html=1;dashed=1;dashPattern=12 12;labelPosition=center;verticalLabelPosition=bottom;align=center;verticalAlign=top;" vertex="1" parent="WIWS0_RXKCG6YfZ-kLhd-126">
          <mxGeometry width="150" height="170" as="geometry" />
        </mxCell>
        <mxCell id="WIWS0_RXKCG6YfZ-kLhd-124" value="Base de données NoSQL" style="shape=cylinder3;whiteSpace=wrap;html=1;boundedLbl=1;backgroundOutline=1;size=15;labelPosition=center;verticalLabelPosition=bottom;align=center;verticalAlign=top;" vertex="1" parent="WIWS0_RXKCG6YfZ-kLhd-126">
          <mxGeometry x="20" y="20" width="110" height="90" as="geometry" />
        </mxCell>
        <mxCell id="WIWS0_RXKCG6YfZ-kLhd-127" value="SQL" style="shape=flexArrow;endArrow=classic;startArrow=classic;html=1;rounded=0;fontSize=17;" edge="1" parent="1">
          <mxGeometry width="100" height="100" relative="1" as="geometry">
            <mxPoint x="950" y="770" as="sourcePoint" />
            <mxPoint x="1060" y="770" as="targetPoint" />
          </mxGeometry>
        </mxCell>
        <mxCell id="WIWS0_RXKCG6YfZ-kLhd-128" value="SQL" style="shape=flexArrow;endArrow=classic;startArrow=classic;html=1;rounded=0;fontSize=17;" edge="1" parent="1">
          <mxGeometry width="100" height="100" relative="1" as="geometry">
            <mxPoint x="950" y="980" as="sourcePoint" />
            <mxPoint x="1060" y="980" as="targetPoint" />
          </mxGeometry>
        </mxCell>
      </root>
    </mxGraphModel>
  </diagram>
</mxfile>
